Coordinates
version=1
nRows=34
nColumns=38
inDegrees=no

Units are S.I. units (second, meters, Newtons, ...)
If the header above contains a line with 'inDegrees', this indicates whether rotational values are in degrees (yes) or radians (no).

endheader
time	pelvis_tilt	pelvis_list	pelvis_rotation	pelvis_tx	pelvis_ty	pelvis_tz	hip_flexion_r	hip_adduction_r	hip_rotation_r	knee_angle_r	ankle_angle_r	subtalar_angle_r	mtp_angle_r	hip_flexion_l	hip_adduction_l	hip_rotation_l	knee_angle_l	ankle_angle_l	subtalar_angle_l	mtp_angle_l	lumbar_extension	lumbar_bending	lumbar_rotation	arm_flex_r	arm_add_r	arm_rot_r	elbow_flex_r	pro_sup_r	wrist_flex_r	wrist_dev_r	arm_flex_l	arm_add_l	arm_rot_l	elbow_flex_l	pro_sup_l	wrist_flex_l	wrist_dev_l
10	-2.85536	1.26481	-1.2962	0.655764	1.51433	0.950734	-0.179029	-0.0402705	-0.16497	0.891643	-0.321472	0	0	-0.0554423	-0.0303072	-0.134154	0.476371	-0.27557	0	0	-0.424013	0.0968702	0.0149742	0.853218	-0.451427	0.274102	0.901884	1.5708	0	0	-0.0940419	-0.536408	-0.676834	1.56425	1.5708	0	0
10.01	-2.85213	1.26606	-1.30459	0.657662	1.51005	0.950298	-0.193983	-0.0336693	-0.157621	0.877453	-0.323338	0	0	-0.050652	-0.026527	-0.135595	0.473816	-0.279166	0	0	-0.421579	0.0939381	0.019838	0.852411	-0.448789	0.273593	0.902474	1.5708	0	0	-0.0971374	-0.535892	-0.679671	1.56896	1.5708	0	0
10.02	-2.84818	1.26686	-1.31371	0.659608	1.50565	0.949853	-0.209775	-0.0276801	-0.150776	0.860688	-0.324652	0	0	-0.0464964	-0.0226368	-0.137553	0.470646	-0.283411	0	0	-0.419937	0.091104	0.0244936	0.852577	-0.446087	0.273946	0.902588	1.5708	0	0	-0.100224	-0.535053	-0.682792	1.57367	1.5708	0	0
10.03	-2.84421	1.2677	-1.32271	0.661635	1.50112	0.949378	-0.225522	-0.0220001	-0.144369	0.842105	-0.323508	0	0	-0.0421677	-0.0188393	-0.139402	0.46728	-0.287669	0	0	-0.418568	0.088446	0.0288235	0.853584	-0.443253	0.275104	0.90233	1.5708	0	0	-0.103216	-0.533971	-0.686264	1.57812	1.5708	0	0
10.04	-2.84096	1.26814	-1.33109	0.663817	1.49648	0.948924	-0.24163	-0.0164181	-0.138769	0.820911	-0.320501	0	0	-0.0381916	-0.0155692	-0.141409	0.46353	-0.292708	0	0	-0.417996	0.0861772	0.0328963	0.855732	-0.44002	0.277235	0.901692	1.5708	0	0	-0.106199	-0.532661	-0.690575	1.58229	1.5708	0	0
10.05	-2.83771	1.26908	-1.33967	0.666089	1.49173	0.948433	-0.256791	-0.0117102	-0.134468	0.797794	-0.318424	0	0	-0.0339824	-0.0119872	-0.142823	0.458802	-0.297412	0	0	-0.417314	0.0838326	0.0368854	0.858485	-0.436711	0.27983	0.901049	1.5708	0	0	-0.109109	-0.531131	-0.6952	1.58609	1.5708	0	0
10.06	-2.83381	1.27013	-1.34923	0.668553	1.48688	0.947952	-0.271227	-0.00811568	-0.132	0.772107	-0.318019	0	0	-0.0301704	-0.00812595	-0.143876	0.452549	-0.302498	0	0	-0.417025	0.0811795	0.0410578	0.861668	-0.433032	0.282094	0.900461	1.5708	0	0	-0.111682	-0.529625	-0.700015	1.58933	1.5708	0	0
10.07	-2.82861	1.2711	-1.36044	0.671131	1.48188	0.947487	-0.285342	-0.00574004	-0.130901	0.742576	-0.31509	0	0	-0.0273233	-0.00365229	-0.144316	0.444171	-0.308207	0	0	-0.417417	0.0781009	0.0450158	0.865677	-0.428733	0.284837	0.899652	1.5708	0	0	-0.114147	-0.527805	-0.705532	1.59237	1.5708	0	0
10.08	-2.82199	1.27176	-1.37318	0.67385	1.47672	0.947034	-0.299561	-0.00406179	-0.131509	0.708232	-0.30309	0	0	-0.0261728	0.00176562	-0.142045	0.432406	-0.315123	0	0	-0.41874	0.0746746	0.0486259	0.870561	-0.42394	0.288145	0.898631	1.5708	0	0	-0.116225	-0.525989	-0.711578	1.59486	1.5708	0	0
10.09	-2.81343	1.27315	-1.38793	0.67669	1.4714	0.946522	-0.312031	-0.003611	-0.135511	0.671881	-0.283639	0	0	-0.0253471	0.00827705	-0.138167	0.417782	-0.322502	0	0	-0.419917	0.0706295	0.0524556	0.875376	-0.419452	0.29084	0.898457	1.5708	0	0	-0.117085	-0.52422	-0.717063	1.59631	1.5708	0	0
10.1	-2.80558	1.27536	-1.40204	0.679674	1.46594	0.945924	-0.322156	-0.00328226	-0.141741	0.636614	-0.262601	0	0	-0.0236907	0.0145302	-0.133802	0.402383	-0.330593	0	0	-0.420653	0.0667315	0.0565144	0.880479	-0.41517	0.293443	0.898677	1.5708	0	0	-0.117183	-0.522339	-0.722366	1.59769	1.5708	0	0
10.11	-2.80098	1.27769	-1.41294	0.682834	1.46034	0.94535	-0.329637	-0.00197922	-0.149596	0.605318	-0.24324	0	0	-0.0216243	0.0192252	-0.129436	0.386641	-0.339178	0	0	-0.421689	0.0637176	0.061121	0.885772	-0.41111	0.295426	0.899449	1.5708	0	0	-0.116277	-0.52061	-0.726942	1.59844	1.5708	0	0
10.12	-2.80262	1.27932	-1.41715	0.686121	1.45456	0.944984	-0.334045	0.000618063	-0.160002	0.579392	-0.227894	0	0	-0.0199691	0.0212916	-0.124659	0.370387	-0.348149	0	0	-0.423841	0.0628168	0.0659971	0.891638	-0.407254	0.29747	0.900212	1.5708	0	0	-0.114321	-0.518619	-0.730941	1.5982	1.5708	0	0
10.13	-2.81297	1.2799	-1.4119	0.689439	1.44855	0.944899	-0.335929	0.0050717	-0.172115	0.558141	-0.218443	0	0	-0.0186609	0.0199127	-0.120391	0.35473	-0.356544	0	0	-0.42749	0.0649628	0.0709745	0.898242	-0.403899	0.300167	0.900946	1.5708	0	0	-0.111456	-0.515877	-0.734767	1.59737	1.5708	0	0
10.14	-2.83036	1.27948	-1.39897	0.6928	1.44235	0.945083	-0.336678	0.0115889	-0.183148	0.539102	-0.21209	0	0	-0.0179473	0.0157055	-0.115985	0.339144	-0.36558	0	0	-0.432619	0.0695507	0.0762663	0.905266	-0.40111	0.303185	0.902116	1.5708	0	0	-0.107596	-0.512588	-0.738384	1.59629	1.5708	0	0
10.15	-2.85124	1.27892	-1.38239	0.696197	1.43605	0.945396	-0.335957	0.0190393	-0.191624	0.521931	-0.208399	0	0	-0.0167483	0.00959185	-0.113099	0.32489	-0.373916	0	0	-0.438057	0.0752631	0.0820256	0.912462	-0.398658	0.306261	0.903284	1.5708	0	0	-0.103049	-0.509118	-0.741347	1.59456	1.5708	0	0
10.16	-2.87153	1.27929	-1.36636	0.699555	1.42969	0.945699	-0.332621	0.0260262	-0.196872	0.507697	-0.206242	0	0	-0.0139638	0.00305401	-0.112672	0.312688	-0.379863	0	0	-0.44248	0.0808071	0.0877755	0.919723	-0.396186	0.30934	0.903948	1.5708	0	0	-0.0982913	-0.505595	-0.743649	1.59236	1.5708	0	0
10.17	-2.88887	1.28087	-1.35326	0.702809	1.42326	0.945958	-0.326594	0.0316683	-0.199303	0.496319	-0.204507	0	0	-0.0103935	-0.00243827	-0.112955	0.300262	-0.384408	0	0	-0.445747	0.0852503	0.0926946	0.927385	-0.393151	0.313075	0.903703	1.5708	0	0	-0.0940498	-0.502053	-0.746301	1.59027	1.5708	0	0
10.18	-2.90239	1.28382	-1.34377	0.705956	1.41685	0.946156	-0.317992	0.0355984	-0.199754	0.487719	-0.202825	0	0	-0.00625676	-0.00644564	-0.113039	0.287213	-0.386589	0	0	-0.447766	0.0879274	0.0962361	0.935031	-0.389161	0.317037	0.902673	1.5708	0	0	-0.0909953	-0.498677	-0.750374	1.58856	1.5708	0	0
10.19	-2.91018	1.28737	-1.33894	0.708887	1.4105	0.946292	-0.308482	0.0376733	-0.198792	0.480904	-0.200875	0	0	-0.00235835	-0.00839474	-0.112421	0.273828	-0.386204	0	0	-0.449137	0.0888983	0.0975164	0.942604	-0.383933	0.320713	0.900759	1.5708	0	0	-0.0888316	-0.495935	-0.755458	1.58774	1.5708	0	0
10.2	-2.91232	1.29059	-1.33868	0.71164	1.40427	0.946422	-0.299443	0.0382011	-0.197389	0.475307	-0.198713	0	0	0.000863378	-0.00880269	-0.112134	0.261069	-0.383807	0	0	-0.450628	0.0886017	0.0971316	0.949788	-0.377925	0.323669	0.898342	1.5708	0	0	-0.0867272	-0.494313	-0.760396	1.58654	1.5708	0	0
10.21	-2.91104	1.29319	-1.34093	0.714246	1.39814	0.946597	-0.291265	0.0378554	-0.196765	0.470555	-0.196624	0	0	0.00406957	-0.00861779	-0.113022	0.250571	-0.380016	0	0	-0.452638	0.0874275	0.0956355	0.956161	-0.371862	0.325697	0.896277	1.5708	0	0	-0.0845346	-0.493904	-0.765041	1.58501	1.5708	0	0
10.22	-2.90792	1.29501	-1.34391	0.716684	1.39208	0.946866	-0.284065	0.0372019	-0.19786	0.46632	-0.194993	0	0	0.00821607	-0.00841527	-0.115134	0.244447	-0.375648	0	0	-0.455327	0.0860073	0.0929247	0.961984	-0.365744	0.327094	0.894422	1.5708	0	0	-0.0821922	-0.494171	-0.769794	1.58329	1.5708	0	0
10.23	-2.90408	1.29617	-1.34634	0.718911	1.38607	0.94726	-0.277795	0.0366521	-0.200484	0.462032	-0.194261	0	0	0.0144594	-0.00872462	-0.119418	0.245344	-0.371491	0	0	-0.458467	0.0849455	0.0890034	0.967388	-0.359836	0.32863	0.892739	1.5708	0	0	-0.0792706	-0.494809	-0.774386	1.58136	1.5708	0	0
10.24	-2.89966	1.29636	-1.3481	0.720915	1.38009	0.947782	-0.272824	0.0365018	-0.203875	0.457415	-0.19453	0	0	0.0229722	-0.00995253	-0.127208	0.255361	-0.367787	0	0	-0.46221	0.0845511	0.0841221	0.972323	-0.354231	0.330215	0.891279	1.5708	0	0	-0.075747	-0.495681	-0.778516	1.57848	1.5708	0	0
10.25	-2.89547	1.29594	-1.34866	0.722707	1.3742	0.948358	-0.268793	0.0369577	-0.20682	0.452352	-0.196018	0	0	0.0342407	-0.0128309	-0.14124	0.27642	-0.36212	0	0	-0.465819	0.0849237	0.0785076	0.976636	-0.348622	0.332177	0.889507	1.5708	0	0	-0.0719513	-0.49673	-0.782337	1.57441	1.5708	0	0
10.26	-2.89058	1.29511	-1.34899	0.724354	1.36844	0.949029	-0.265711	0.0377822	-0.208901	0.446687	-0.198116	0	0	0.0444262	-0.0159457	-0.154266	0.299844	-0.356149	0	0	-0.469279	0.0854688	0.0727063	0.979598	-0.343902	0.334013	0.88849	1.5708	0	0	-0.0672577	-0.498426	-0.784555	1.56936	1.5708	0	0
10.27	-2.88538	1.29354	-1.34906	0.725792	1.36277	0.949771	-0.26391	0.0387955	-0.209865	0.440442	-0.200955	0	0	0.0534395	-0.0197162	-0.168035	0.326487	-0.347902	0	0	-0.472748	0.0865779	0.0666802	0.981932	-0.339322	0.335678	0.887199	1.5708	0	0	-0.0621441	-0.500322	-0.785554	1.56427	1.5708	0	0
10.28	-2.8798	1.29109	-1.34944	0.727053	1.35718	0.950577	-0.263196	0.0396924	-0.209828	0.434278	-0.204388	0	0	0.0610678	-0.024222	-0.182384	0.356143	-0.33831	0	0	-0.476489	0.0880893	0.0607719	0.984101	-0.334909	0.337435	0.885344	1.5708	0	0	-0.0570404	-0.502398	-0.785873	1.55878	1.5708	0	0
10.29	-2.8739	1.28824	-1.3501	0.72823	1.35172	0.951437	-0.263179	0.0404501	-0.209253	0.42783	-0.208257	0	0	0.0676702	-0.0293946	-0.194975	0.387917	-0.329519	0	0	-0.480068	0.0895762	0.0552054	0.985469	-0.33062	0.338359	0.883433	1.5708	0	0	-0.0516391	-0.504703	-0.785442	1.553	1.5708	0	0
10.3	-2.86794	1.28536	-1.35134	0.729321	1.34643	0.952337	-0.263302	0.0408463	-0.208245	0.421377	-0.212735	0	0	0.073766	-0.0351532	-0.205059	0.421732	-0.323074	0	0	-0.48314	0.0906676	0.0504622	0.985947	-0.326728	0.338514	0.881491	1.5708	0	0	-0.0462392	-0.507249	-0.783975	1.54755	1.5708	0	0
10.31	-2.86196	1.28239	-1.35346	0.730287	1.34124	0.953223	-0.263363	0.0406495	-0.207508	0.415738	-0.217416	0	0	0.079352	-0.0411799	-0.21204	0.457187	-0.319349	0	0	-0.485867	0.0914505	0.0468316	0.985972	-0.323462	0.338204	0.879517	1.5708	0	0	-0.0409682	-0.509982	-0.78155	1.54282	1.5708	0	0
10.32	-2.85608	1.27948	-1.35655	0.731135	1.33612	0.954049	-0.262856	0.0396996	-0.206852	0.41163	-0.221356	0	0	0.0844581	-0.047222	-0.215443	0.493608	-0.317899	0	0	-0.488199	0.0919662	0.0441964	0.985896	-0.320624	0.338049	0.877412	1.5708	0	0	-0.0360367	-0.512498	-0.77891	1.5389	1.5708	0	0
10.33	-2.85149	1.27684	-1.35946	0.731946	1.33113	0.954796	-0.261604	0.0384725	-0.205635	0.408595	-0.225472	0	0	0.0897562	-0.05437	-0.218065	0.531997	-0.317326	0	0	-0.489861	0.0922158	0.0425714	0.985669	-0.318108	0.338486	0.874924	1.5708	0	0	-0.0316485	-0.514969	-0.776441	1.53487	1.5708	0	0
